Coordinates
version=1
nRows=17
nColumns=40
inDegrees=yes

Units are S.I. units (second, meters, Newtons, ...)
Angles are in degrees.

endheader
time	pelvis_tilt	pelvis_list	pelvis_rotation	pelvis_tx	pelvis_ty	pelvis_tz	hip_flexion_r	hip_adduction_r	hip_rotation_r	knee_angle_r	knee_angle_r_beta	ankle_angle_r	subtalar_angle_r	mtp_angle_r	hip_flexion_l	hip_adduction_l	hip_rotation_l	knee_angle_l	knee_angle_l_beta	ankle_angle_l	subtalar_angle_l	mtp_angle_l	lumbar_extension	lumbar_bending	lumbar_rotation	arm_flex_r	arm_add_r	arm_rot_r	elbow_flex_r	pro_sup_r	wrist_flex_r	wrist_dev_r	arm_flex_l	arm_add_l	arm_rot_l	elbow_flex_l	pro_sup_l	wrist_flex_l	wrist_dev_l
     19.98728571	     -0.86348773	     -6.90570867	      9.76357032	      1.02422221	      0.90555746	      0.56964021	     14.75683577	      9.90906641	     -9.50514077	     30.69574982	     30.69574982	     19.44874266	    -17.10082038	      0.33368454	     30.35573009	    -16.30255017	      6.32486186	     68.11437745	     68.11437745	     10.69743548	    -19.65112160	     23.07035768	    -10.19713592	      6.46528583	      1.71450049	     30.57338908	    -14.33911176	    -10.09434018	     34.24950837	     46.47121332	      0.00000000	      0.00000000	     -3.08734114	     -9.68832075	      3.86536392	     33.67128770	     45.71720295	      0.00000000	      0.00000000
     20.01207143	     -0.76814018	     -6.79467745	     10.63158754	      1.02257571	      0.90476493	      0.56986655	     14.76417144	      9.86435079	     -9.82068281	     31.29581289	     31.29581289	     20.85837782	    -17.24850871	      3.69272957	     31.92573274	    -15.80307202	      6.84816989	     68.11964441	     68.11964441	     11.15868440	    -19.66227445	     24.15628554	    -10.36655165	      6.25646815	      2.53609067	     32.78038015	    -15.27736268	    -11.05867683	     37.06025231	     46.38797832	      0.00000000	      0.00000000	     -4.10945316	     -9.73051783	      9.09375375	     30.78841802	     45.01088029	      0.00000000	      0.00000000
     20.03685714	     -0.82960688	     -6.60585470	     11.42020863	      1.02092945	      0.90462168	      0.56978052	     14.57247437	      9.66474135	    -10.26009982	     31.19185632	     31.19185632	     20.98152790	    -17.54476927	      3.74901138	     33.23658010	    -15.19557342	      7.07716829	     67.02044984	     67.02044984	     11.51941468	    -19.65651096	     24.05371606	    -10.46954090	      5.87993570	      3.18094014	     35.51838822	    -16.44199126	    -11.26472059	     38.22847443	     46.37413970	      0.00000000	      0.00000000	     -5.90246477	     -9.29309257	      9.34226082	     30.14449943	     44.94961464	      0.00000000	      0.00000000
     20.06164286	     -0.97012743	     -6.34236824	     12.23204165	      1.01922730	      0.90495372	      0.56912746	     14.38502087	      9.28319074	    -10.85952996	     31.02130627	     31.02130627	     21.10164523	    -17.59117088	      3.90784115	     34.24294181	    -14.31081436	      7.32747171	     64.96036963	     64.96036963	     12.10179533	    -19.63564688	     23.68290685	    -10.49611021	      5.61115805	      2.27746365	     38.83956079	    -15.86751653	    -11.36279237	     40.92893760	     46.28905805	      0.00000000	      0.00000000	     -8.22027258	     -8.90904793	     10.35262815	     28.91065861	     44.77055576	      0.00000000	      0.00000000
     20.08642857	     -1.25524486	     -6.01716888	     12.92658711	      1.01753369	      0.90594211	      0.56825129	     14.12192585	      8.81788654	    -11.39884960	     30.49139877	     30.49139877	     21.08696640	    -17.48008530	      4.11311054	     34.86076303	    -13.35209990	      7.36670946	     61.77878534	     61.77878534	     12.19783648	    -19.58233970	     21.83062211	    -10.47403664	      5.20036517	      3.04216487	     40.36392682	    -17.02097102	    -11.69733160	     45.66552750	     46.09117788	      0.00000000	      0.00000000	     -9.81840978	     -9.30499040	     15.38131478	     29.14880474	     44.02908495	      0.00000000	      0.00000000
     20.11121429	     -1.61854371	     -5.61061626	     13.58421780	      1.01581683	      0.90742720	      0.56687208	     13.77602484	      8.22423327	    -11.94731418	     29.72593496	     29.72593496	     20.96419884	    -17.26065496	      4.18566036	     35.13497451	    -12.13778954	      7.51377869	     57.80639627	     57.80639627	     12.63335364	    -19.48601436	     21.38368522	    -10.35264071	      4.72575610	      2.90212907	     43.35460340	    -17.26762594	    -11.72944296	     47.34607786	     46.04406810	      0.00000000	      0.00000000	    -11.52195687	     -8.85816310	     16.08252310	     28.54104471	     43.91230219	      0.00000000	      0.00000000
     20.13600000	     -2.06100985	     -5.24976258	     14.17097472	      1.01416071	      0.90906297	      0.56529760	     13.40414340	      7.63067188	    -12.57995117	     28.75969296	     28.75969296	     20.45864671	    -16.90345236	      3.20891512	     34.96401715	    -11.06505432	      7.56439497	     52.83745536	     52.83745536	     11.31396452	    -19.31664383	     16.72644464	    -10.17302198	      4.31782528	      3.03453362	     45.58274537	    -17.83196916	    -11.47129270	     50.55564419	     45.90711241	      0.00000000	      0.00000000	    -13.12669853	     -8.90329617	     18.71880920	     28.95446632	     43.55600138	      0.00000000	      0.00000000
     20.16078571	     -2.48310987	     -4.87805186	     14.67324990	      1.01266595	      0.91097062	      0.56341012	     12.87623426	      7.03700912	    -13.21780196	     27.60301953	     27.60301953	     19.93323670	    -16.43038991	      2.41541285	     34.39208090	     -9.97782372	      7.76293565	     47.37043289	     47.37043289	      9.86878837	    -19.00713943	     12.78850591	    -10.00634639	      3.90962818	      3.27852230	     47.74040808	    -18.36536110	    -11.23043656	     53.42360817	     45.78821885	      0.00000000	      0.00000000	    -14.48919516	     -8.94547078	     21.38128756	     29.26101084	     43.25811387	      0.00000000	      0.00000000
     20.18557143	     -2.94853535	     -4.45053192	     15.06574068	      1.01125218	      0.91287749	      0.56130745	     12.39772868	      6.40464512	    -13.64138317	     26.53821206	     26.53821206	     19.72379791	    -15.90653216	      2.52422654	     33.68691530	     -8.81419756	      8.16938902	     41.98400386	     41.98400386	      9.62195039	    -18.10275960	     12.92678539	     -9.77131494	      3.39915208	      3.39371931	     50.24661317	    -18.55598285	    -11.19905737	     54.90286978	     45.74651423	      0.00000000	      0.00000000	    -15.59617171	     -8.59689105	     21.74911851	     29.04883550	     43.20295986	      0.00000000	      0.00000000
     20.21035714	     -3.25799057	     -4.21163636	     15.44300421	      1.01017761	      0.91451044	      0.55904517	     11.70054107	      5.94081055	    -14.46108406	     25.32600229	     25.32600229	     19.15982366	    -14.98362118	      1.06063111	     32.55236715	     -8.19708050	      8.25663955	     36.22343563	     36.22343563	      7.11870996	    -16.84433710	      7.29039091	     -9.74609578	      3.19417994	      3.64082701	     51.90856978	    -19.13289233	    -10.49815740	     58.71654236	     45.58719449	      0.00000000	      0.00000000	    -16.71724582	     -8.68484901	     23.78047117	     29.87815277	     43.02421674	      0.00000000	      0.00000000
     20.23514286	     -3.73439244	     -4.02016475	     15.70284984	      1.00915672	      0.91571897	      0.55679734	     11.29351863	      5.58842976	    -14.79592993	     24.30928170	     24.30928170	     18.99753781	    -14.52378204	      1.16265253	     31.84193309	     -7.62701915	      8.35719508	     31.47193424	     31.47193424	      6.98886785	    -14.32040811	      7.87078891	     -9.38912181	      2.90841514	      3.80769130	     54.09509808	    -19.16997508	    -10.42443867	     59.87326100	     45.55496450	      0.00000000	      0.00000000	    -17.41931067	     -8.40614322	     24.05044218	     29.74763474	     42.99001511	      0.00000000	      0.00000000
     20.25992857	     -3.86272222	     -3.88225640	     15.93766530	      1.00859120	      0.91708737	      0.55441440	     10.42666395	      5.37525537	    -15.29750827	     23.16079135	     23.16079135	     18.88815163	    -13.58663558	      1.03045535	     30.84945950	     -7.35998614	      8.13938952	     27.35759158	     27.35759158	      6.92796636	    -11.25799664	      8.28152768	     -9.47077317	      2.75467831	      3.71656361	     56.06752902	    -18.93409290	    -10.12992117	     61.49511789	     45.49718641	      0.00000000	      0.00000000	    -18.21998732	     -8.18871180	     24.42733660	     29.65694226	     42.94683277	      0.00000000	      0.00000000
     20.28471429	     -4.06558283	     -3.91592198	     16.11790856	      1.00810371	      0.91781279	      0.55193154	      9.72001867	      5.29682760	    -15.88322304	     22.09180709	     22.09180709	     18.74920632	    -12.57219320	      0.57579311	     30.27794709	     -7.30532122	      7.68088127	     24.27070929	     24.27070929	      6.93333601	     -7.96423064	      8.54210521	     -9.39321529	      2.78684073	      3.72809175	     57.71962422	    -18.81091251	     -9.58457910	     63.49998563	     45.41728764	      0.00000000	      0.00000000	    -18.71488286	     -8.06439441	     24.92372851	     29.82306334	     42.90861618	      0.00000000	      0.00000000
     20.30950000	     -4.38616109	     -3.87642200	     16.20431204	      1.00772298	      0.91821866	      0.54940109	      9.27737338	      5.14010149	    -16.08389840	     21.33648266	     21.33648266	     18.68799962	    -12.08570079	      0.41412395	     29.82123073	     -7.07443246	      7.42250581	     21.77597258	     21.77597258	      6.70219986	     -5.66976631	      8.90695766	     -9.16530496	      2.60847766	      3.90138798	     59.07877019	    -18.77119150	     -9.29075537	     64.66027486	     45.37449362	      0.00000000	      0.00000000	    -18.99179026	     -8.04589280	     25.15822488	     29.85586178	     42.89139721	      0.00000000	      0.00000000
     20.33428571	     -4.58759719	     -3.90539160	     16.25783089	      1.00757096	      0.91850107	      0.54673623	      8.66919936	      5.08306459	    -16.38161766	     20.49165065	     20.49165065	     18.63398828	    -11.36570368	      0.12653334	     29.49100681	     -6.99123910	      6.93088551	     20.19635706	     20.19635706	      6.57905308	     -3.39199821	      8.77399281	     -9.10989932	      2.52342905	      3.96128135	     60.20928506	    -18.64873688	     -8.81847293	     66.11492615	     45.31549714	      0.00000000	      0.00000000	    -19.13923562	     -8.09069635	     25.46825000	     29.89538385	     42.87507963	      0.00000000	      0.00000000
     20.35907143	     -5.02076969	     -4.03798958	     16.26181383	      1.00724041	      0.91811829	      0.54396521	      8.57857563	      5.03369096	    -16.44144036	     20.08806270	     20.08806270	     18.65667849	    -11.11053885	      0.06437338	     29.64895611	     -6.80458515	      6.96007295	     19.42523746	     19.42523746	      6.34367857	     -2.43954914	      8.72167632	     -8.77199726	      2.47323993	      4.16361616	     61.33740945	    -18.59562210	     -8.67546034	     66.79474221	     45.29326502	      0.00000000	      0.00000000	    -19.04427882	     -8.20235697	     25.52978615	     29.90871514	     42.87595387	      0.00000000	      0.00000000
     20.38385714	     -5.10083207	     -4.11227943	     16.16808315	      1.00768455	      0.91819739	      0.54103691	      7.86348659	      5.04517116	    -16.63513102	     19.32496372	     19.32496372	     18.41497587	    -10.46036049	     -0.92315690	     29.20718985	     -6.85118399	      6.37540392	     18.63922847	     18.63922847	      5.06302979	     -1.09184402	      5.01533768	     -8.83470672	      2.42370128	      4.62185114	     61.34023469	    -19.22392052	     -7.55378072	     69.46420368	     45.19021461	      0.00000000	      0.00000000	    -18.66914169	     -8.57240155	     26.91808388	     29.88438511	     42.86889523	      0.00000000	      0.00000000
